PathFileType	4	(X/Y/Z)	W16_1_OpenSim.trc																																																																																																																						
DataRate	CameraRate	NumFrames	NumMarkers	Units	OrigDataRate	OrigDataStartFrame	OrigNumFrames																																																																																																																		
100	100	9	40	mm	100	1	3000																																																																																																																		
Frame#	Time	R.ASIS			R.PSIS			S2			L.PSIS			L.ASIS			R.TH1			R.TH2			R.TH3			R.MKnee			R.Knee			R.SH1			R.SH2			R.SH3			R.SH4			R.Ankle			R.MAnkle			R.Heel			R.MT5			R.MT1			L.TH1			L.TH2			L.TH3			L.TH4			L.MKnee			L.Knee			L.SH1			L.SH2			L.SH3			L.Ankle			L.MAnkle			L.Heel			L.MT5			L.MT1			R.Acr			L.Acr			C7			T10			Clav			Sternum			R.Back		
		X1	Y1	Z1	X2	Y2	Z2	X3	Y3	Z3	X4	Y4	Z4	X5	Y5	Z5	X6	Y6	Z6	X7	Y7	Z7	X8	Y8	Z8	X9	Y9	Z9	X10	Y10	Z10	X11	Y11	Z11	X12	Y12	Z12	X13	Y13	Z13	X14	Y14	Z14	X15	Y15	Z15	X16	Y16	Z16	X17	Y17	Z17	X18	Y18	Z18	X19	Y19	Z19	X20	Y20	Z20	X21	Y21	Z21	X22	Y22	Z22	X23	Y23	Z23	X24	Y24	Z24	X25	Y25	Z25	X26	Y26	Z26	X27	Y27	Z27	X28	Y28	Z28	X29	Y29	Z29	X30	Y30	Z30	X31	Y31	Z31	X32	Y32	Z32	X33	Y33	Z33	X34	Y34	Z34	X35	Y35	Z35	X36	Y36	Z36	X37	Y37	Z37	X38	Y38	Z38	X39	Y39	Z39	X40	Y40	Z40
1	0	917.9215	1061.3008	-420.0584	728.194	1060.2463	-512.811	721.1666	1057.9507	-558.1467	728.4246	1066.7391	-607.7673	906.9495	1065.2805	-711.4042	976.298	748.669	-396.1654	901.3015	715.926	-389.347	945.3898	614.9608	-394.7805	1010.4753	508.455	-516.2905	996.5931	514.7877	-396.3029	898.0317	389.1333	-394.0618	819.3656	309.2681	-410.8971	840.1911	448.0081	-393.186	761.7742	365.6368	-399.8033	657.614	250.3078	-406.3029	698.5774	232.2394	-497.188	595.9354	275.8616	-467.7658	688.8043	134.0064	-375.1093	725.4077	97.3119	-460.2846	947.3164	770.4763	-725.0295	957.7008	662.3581	-713.9869	864.7692	758.2373	-734.8662	878.2579	650.4999	-715.1621	943.6229	511.919	-585.6022	945.5178	516.0957	-695.8995	940.8547	380.5504	-711.9715	859.6746	392.126	-722.7662	846.4724	282.9793	-716.2322	867.7996	82.4294	-708.8142	895.8129	93.529	-609.2123	801.2491	42.3257	-654.4619	974.7458	32.7352	-722.9258	1012.8146	45.109	-622.3406	873.1672	1464.6147	-407.8634	829.7169	1446.8794	-734.2976	799.8323	1499.1515	-569.8801	761.3264	1172.2461	-555.2375	933.1499	1402.0757	-578.784	965.1732	1262.3396	-567.5964	725.8357	1402.1054	-472.283
2	0.01	915.9222	1063.5652	-420.4365	726.2592	1061.821	-512.6382	719.2094	1059.3939	-557.9744	726.2875	1068.1674	-607.6229	904.7967	1066.4165	-712.0934	979.5512	754.939	-394.9906	905.1699	720.4768	-389.0988	951.6647	620.7113	-394.1876	1020.3434	515.7036	-515.3223	1005.7595	521.3754	-395.525	912.5168	391.239	-393.9487	837.8013	308.195	-411.0906	852.2079	447.3933	-393.1323	777.8487	361.6794	-400.0597	679.0969	241.4865	-407.1619	721.3749	225.9914	-497.8221	616.4978	263.8756	-468.9923	716.3719	127.1729	-376.1589	755.4555	93.1971	-461.3125	940.6024	770.1605	-725.3897	948.8111	662.1058	-714.1019	858.0977	759.601	-735.4975	869.4387	651.6711	-715.9018	932.1075	511.5241	-586.4267	932.9949	515.7524	-696.8353	926.6279	380.3038	-712.6733	845.7065	392.6105	-722.8179	831.5898	283.6183	-716.1482	851.9067	82.4945	-708.6594	879.8711	93.3174	-608.9822	785.1274	42.8127	-654.4858	958.7412	32.7088	-722.9045	996.8532	45.017	-622.3809	871.0403	1465.9987	-407.6304	830.3726	1449.4839	-734.2621	799.1861	1501.0698	-570.1253	759.7012	1174.2964	-556.4125	932.1652	1403.9658	-578.3064	963.8918	1264.3002	-567.3812	724.3438	1404.1223	-473.5997
3	0.02	913.9985	1065.6599	-420.8265	724.3478	1063.2751	-512.3939	717.2558	1060.7236	-557.7242	724.1458	1069.4813	-607.4018	902.6176	1067.4695	-712.7707	982.6788	761.0124	-393.8339	908.9197	724.8592	-388.774	957.7401	626.2864	-393.5678	1029.899	522.7626	-514.3545	1014.6398	527.7819	-394.7523	926.9044	393.2008	-393.7461	856.2607	306.9688	-411.191	864.1127	446.5095	-393.0208	793.946	357.4696	-400.2517	700.8491	232.419	-407.8526	744.377	219.5226	-498.3058	637.3616	251.5395	-470.0449	744.2602	120.2694	-377.007	785.7513	89.0353	-462.1315	933.8411	769.7961	-725.7558	939.8933	661.8003	-714.2312	851.3787	760.9111	-736.1101	860.58	652.8024	-716.6166	920.5256	511.1127	-587.2372	920.441	515.4084	-697.7595	912.4389	380.05	-713.3536	831.7695	393.0787	-722.9017	816.7473	284.2394	-716.0925	836.0276	82.5768	-708.5133	863.9557	93.1548	-608.7781	769.0447	43.2631	-654.4968	942.7469	32.6893	-722.8917	980.8917	44.9481	-622.4188	868.9623	1467.2393	-407.3968	831.0158	1451.9741	-734.2053	798.5407	1502.8712	-570.3484	758.0969	1176.218	-557.5361	931.1924	1405.724	-577.8268	962.6312	1266.1149	-567.1564	722.8649	1406.0295	-474.8817
4	0.03	912.2167	1067.4478	-421.2412	722.4858	1064.5138	-512.0218	715.3183	1061.8499	-557.3371	722.0028	1070.5895	-607.0457	900.395	1068.3622	-713.4236	985.566	766.7114	-392.7267	912.4484	728.9331	-388.3119	963.444	631.5277	-392.898	1038.852	529.4474	-513.3943	1022.9837	533.837	-393.9951	941.1067	394.8843	-393.3907	874.7675	305.4577	-411.1211	875.8157	445.1196	-392.7986	810.0942	352.791	-400.3053	723.1068	222.9075	-408.2288	767.7643	212.6568	-498.5037	658.8019	238.569	-470.7736	772.7361	113.2591	-377.4779	816.4981	84.8084	-462.5568	927.0055	769.3433	-726.1233	930.9286	661.3957	-714.3839	844.5819	762.1225	-736.6887	851.6556	653.8613	-717.2863	908.8347	510.667	-588.0153	907.8426	515.0616	-698.6533	898.3283	379.7847	-713.991	817.8939	393.5185	-723.0441	801.9812	284.8287	-716.0894	820.1707	82.6854	-708.3821	848.0791	93.0672	-608.6208	753.0319	43.6471	-654.4844	926.7694	32.6844	-722.8934	964.9297	44.9173	-622.4547	866.9727	1468.2147	-407.1609	831.6335	1454.2432	-734.1101	797.8965	1504.4525	-570.5307	756.5322	1177.8986	-558.5638	930.2415	1407.2358	-577.3437	961.4058	1267.6576	-566.912	721.4091	1407.7281	-476.0988
5	0.04	910.6255	1068.8392	-421.6924	720.7003	1065.483	-511.4926	713.4197	1062.7192	-556.7836	719.8724	1071.4374	-606.5267	898.1245	1069.0243	-714.0402	988.1259	771.8914	-391.7059	915.6793	732.6008	-387.6808	968.6444	636.304	-392.1649	1046.9529	535.5847	-512.4582	1030.5972	539.39	-393.2697	955.0533	396.1753	-392.8542	893.342	303.5685	-410.8243	887.2636	443.0394	-392.4191	826.3286	347.4896	-400.1417	746.0546	212.8334	-408.1809	791.6808	205.2892	-498.3064	681.0533	224.7863	-471.0617	801.9847	106.159	-377.4371	847.836	80.5464	-462.4451	920.1019	768.7765	-726.475	921.909	660.8605	-714.5538	837.7029	763.2028	-737.2237	842.6594	654.8247	-717.8982	897.0225	510.1706	-588.7402	895.2092	514.7079	-699.4932	884.3293	379.5066	-714.568	804.1047	393.9253	-723.2586	787.3178	285.3807	-716.1533	804.3341	82.816	-708.2658	832.2391	93.0517	-608.5202	737.1001	43.9513	-654.4455	910.8079	32.6996	-722.9088	948.968	44.9305	-622.4941	865.0963	1468.8369	-406.9204	832.2156	1456.199	-733.9667	797.2546	1505.7344	-570.6569	755.023	1179.2528	-559.4622	929.3207	1408.4142	-576.8559	960.2232	1268.8335	-566.6382	719.984	1409.1366	-477.2281
6	0.05	909.2526	1069.7924	-422.1864	719.0154	1066.1681	-510.8073	711.5886	1063.3149	-556.0658	717.7771	1072.0072	-605.8473	895.8157	1069.3954	-714.6089	990.3115	776.4476	-390.7933	918.5594	735.8025	-386.8828	973.2484	640.515	-391.369	1054.0072	541.0181	-511.5706	1037.3456	544.3144	-392.5956	968.6936	396.9897	-392.1357	911.9957	301.2573	-410.2661	898.444	440.1451	-391.8406	842.6912	341.4843	-399.6883	769.8243	202.1702	-407.6376	816.2292	197.3933	-497.6364	704.3067	210.1314	-470.825	832.1075	99.0454	-376.795	879.8441	76.3342	-461.7009	913.1654	768.0822	-726.7849	912.8386	660.1805	-714.7195	830.7628	764.1317	-737.7123	833.6041	655.6779	-718.4473	885.1017	509.6106	-589.3975	882.5689	514.342	-700.2553	870.4558	379.2165	-715.0743	790.415	394.3019	-723.5374	772.7652	285.8987	-716.2808	788.5074	82.9554	-708.1575	816.4251	93.0865	-608.4732	721.2371	44.1822	-654.3843	894.8534	32.7351	-722.9301	933.0077	44.9865	-622.5445	863.3445	1469.0522	-406.6716	832.7557	1457.7694	-733.7711	796.6164	1506.6648	-570.7158	753.5809	1180.2281	-560.2087	928.4368	1409.1998	-576.36	959.0886	1269.5808	-566.3256	718.5939	1410.1935	-478.2558
7	0.06	908.1042	1070.3001	-422.7191	717.4522	1066.5804	-509.9917	709.8564	1063.6454	-555.2109	715.7458	1072.3085	-605.0326	893.4904	1069.4272	-715.1198	992.1088	780.3072	-389.9926	921.0491	738.4988	-385.9516	977.1924	644.0861	-390.5295	1059.879	545.6153	-510.7589	1043.1436	548.5082	-391.9934	981.9923	397.2795	-391.2516	930.7244	298.533	-409.4316	909.375	436.3745	-391.0285	859.2258	334.7647	-398.8858	794.4994	190.9832	-406.5598	841.4713	189.0163	-496.4512	728.7053	194.657	-470.0054	863.1381	92.0488	-375.5057	912.5441	72.3066	-460.2798	906.2399	767.2507	-727.0257	903.7351	659.3544	-714.8523	823.7997	764.8971	-738.1566	824.5175	656.4118	-718.9332	873.1047	508.9791	-589.9824	869.959	513.9572	-700.9166	856.7014	378.9167	-715.5054	776.8235	394.6567	-723.8491	758.313	286.3936	-716.4478	772.6772	83.0917	-708.0453	800.6265	93.1412	-608.4634	705.4155	44.362	-654.3071	878.8926	32.7878	-722.9492	917.0478	45.0785	-622.6113	861.7169	1468.8381	-406.4078	833.2495	1458.905	-733.5224	795.9829	1507.2159	-570.7023	752.2139	1180.8007	-560.7899	927.596	1409.5594	-575.8486	958.0071	1269.8662	-565.967	717.2411	1410.8586	-479.1757
8	0.07	907.1707	1070.3757	-423.2751	716.0288	1066.7436	-509.0847	708.2532	1063.7314	-554.26	713.8116	1072.3643	-604.121	891.1784	1069.0889	-715.5659	993.5182	783.4107	-389.3138	923.1094	740.6563	-384.9444	980.4261	646.9597	-389.6845	1064.4808	549.2706	-510.0471	1047.942	551.8904	-391.4839	994.9183	397.0364	-390.2296	949.5048	295.4522	-408.3182	920.0879	431.7223	-389.9615	875.9686	327.3842	-397.6938	820.1214	179.4166	-404.9354	867.4275	180.2719	-494.7429	754.3425	178.5129	-468.5635	895.0595	85.3467	-373.5626	945.9049	68.6406	-458.1887	899.3617	766.2705	-727.1748	894.6281	658.3887	-714.9266	816.8571	765.4929	-738.5601	815.4357	657.0211	-719.3555	861.0773	508.2761	-590.4976	857.4185	513.5461	-701.4561	843.0453	378.6122	-715.8601	763.3188	395.0009	-724.1435	743.9388	286.8806	-716.6111	756.8367	83.2195	-707.9161	784.8406	93.183	-608.4625	689.6074	44.5188	-654.2164	862.9169	32.8542	-722.9638	901.0885	45.1961	-622.6963	860.2039	1468.197	-406.1209	833.6915	1459.5795	-733.2217	795.3554	1507.3774	-570.6183	750.9266	1180.967	-561.1998	926.804	1409.4842	-575.3121	956.9839	1269.6809	-565.5607	715.9271	1411.1112	-479.9873
9	0.08	906.4348	1070.0411	-423.8277	714.7623	1066.6811	-508.1283	706.8061	1063.5953	-553.2579	712.0117	1072.1982	-603.1533	888.9097	1068.3679	-715.9445	994.5373	785.7017	-388.7861	924.6965	742.2383	-383.9327	982.8995	649.0831	-388.8867	1067.762	551.9	-509.4514	1051.7162	554.3967	-391.0868	1007.4341	396.2899	-389.1026	968.2925	292.1103	-406.9321	930.6106	426.2341	-388.6336	892.9357	319.453	-396.0955	846.6948	167.6752	-402.7763	894.0737	171.3328	-492.5354	781.2626	161.9255	-466.4776	927.8132	79.1576	-370.9966	979.847	65.5498	-455.4825	892.5532	765.1303	-727.2177	885.5525	657.2939	-714.9249	809.9758	765.9166	-738.9244	806.3989	657.5032	-719.709	849.0731	507.5095	-590.9456	844.9844	513.1004	-701.8567	829.4632	378.3083	-716.1385	749.887	395.3467	-724.3631	729.6186	287.3775	-716.7191	740.993	83.3439	-707.7612	769.0753	93.1855	-608.4362	673.7968	44.6755	-654.1072	846.9273	32.9316	-722.9764	885.1391	45.3251	-622.7975	858.7906	1467.1509	-405.8035	834.0738	1459.7858	-732.8716	794.7364	1507.1505	-570.4697	749.7224	1180.7365	-561.4386	926.0664	1408.9845	-574.7432	956.0198	1269.036	-565.1126	714.6552	1410.9459	-480.6909
